<svg width="104" height="77" viewBox="0 0 104 77" fill="none" xmlns="http://www.w3.org/2000/svg">
<path d="M6.78327 9.23663C7.47792 8.90489 8.2712 9.44953 8.21117 10.217L7.80597 15.3973C7.74594 16.1648 6.87762 16.5794 6.243 16.1437L1.95931 13.2027C1.32468 12.7669 1.39972 11.8076 2.09437 11.4759L6.78327 9.23663Z" fill="white" fill-opacity="0.1"/>
<path d="M11.4755 27.7836C11.8073 28.4783 11.2626 29.2716 10.4952 29.2115L5.31484 28.8063C4.54739 28.7463 4.13271 27.878 4.56843 27.2434L7.5095 22.9597C7.94522 22.325 8.90454 22.4001 9.23628 23.0947L11.4755 27.7836Z" fill="white" fill-opacity="0.1"/>
<path d="M48.0031 37.5374C48.6978 37.2057 49.491 37.7503 49.431 38.5178L49.0258 43.6981C48.9658 44.4656 48.0975 44.8802 47.4629 44.4445L43.1792 41.5034C42.5445 41.0677 42.6196 40.1084 43.3142 39.7767L48.0031 37.5374Z" fill="white" fill-opacity="0.1"/>
<path d="M29.4564 42.23C29.1246 41.5354 29.6693 40.7421 30.4367 40.8021L35.617 41.2073C36.3845 41.2674 36.7992 42.1357 36.3635 42.7703L33.4224 47.054C32.9867 47.6886 32.0273 47.6136 31.6956 46.9189L29.4564 42.23Z" fill="white" fill-opacity="0.1"/>
<path d="M52.6954 56.0844C53.0271 56.7791 52.4825 57.5723 51.715 57.5123L46.5347 57.1071C45.7672 57.0471 45.3526 56.1788 45.7883 55.5442L48.7294 51.2605C49.1651 50.6258 50.1244 50.7009 50.4561 51.3955L52.6954 56.0844Z" fill="white" fill-opacity="0.1"/>
<path d="M34.1487 60.7761C33.4541 61.1078 32.6608 60.5632 32.7208 59.7957L33.126 54.6154C33.1861 53.8479 34.0544 53.4332 34.689 53.869L38.9727 56.81C39.6073 57.2458 39.5323 58.2051 38.8376 58.5368L34.1487 60.7761Z" fill="white" fill-opacity="0.1"/>
<path d="M89.2231 65.8372C89.9177 65.5055 90.711 66.0501 90.651 66.8176L90.2458 71.9979C90.1858 72.7654 89.3174 73.18 88.6828 72.7443L84.3991 69.8032C83.7645 69.3675 83.8395 68.4082 84.5342 68.0765L89.2231 65.8372Z" fill="white" fill-opacity="0.1"/>
<path d="M70.6763 70.5298C70.3446 69.8352 70.8892 69.0419 71.6567 69.1019L76.837 69.5071C77.6045 69.5672 78.0191 70.4355 77.5834 71.0701L74.6424 75.3538C74.2066 75.9884 73.2473 75.9134 72.9156 75.2187L70.6763 70.5298Z" fill="white" fill-opacity="0.1"/>
</svg>
