<svg width="103" height="78" viewBox="0 0 103 78" fill="none" xmlns="http://www.w3.org/2000/svg">
<path d="M32.4758 6.78363C32.8075 7.47828 32.2629 8.27156 31.4954 8.21153L26.3151 7.80633C25.5476 7.74631 25.133 6.87799 25.5687 6.24337L28.5097 1.95967C28.9455 1.32505 29.9048 1.40009 30.2365 2.09474L32.4758 6.78363Z" fill="white" fill-opacity="0.1"/>
<path d="M13.929 11.4753C13.2344 11.807 12.4411 11.2624 12.5011 10.4949L12.9063 5.3146C12.9663 4.54714 13.8347 4.13247 14.4693 4.56818L18.753 7.50926C19.3876 7.94497 19.3126 8.90429 18.6179 9.23604L13.929 11.4753Z" fill="white" fill-opacity="0.1"/>
<path d="M69.0034 16.5374C69.698 16.2057 70.4913 16.7503 70.4313 17.5178L70.0261 22.6981C69.966 23.4656 69.0977 23.8802 68.4631 23.4445L64.1794 20.5034C63.5448 20.0677 63.6198 19.1084 64.3145 18.7767L69.0034 16.5374Z" fill="white" fill-opacity="0.1"/>
<path d="M50.4566 21.23C50.1249 20.5354 50.6695 19.7421 51.437 19.8021L56.6173 20.2073C57.3847 20.2674 57.7994 21.1357 57.3637 21.7703L54.4226 26.054C53.9869 26.6886 53.0276 26.6136 52.6958 25.9189L50.4566 21.23Z" fill="white" fill-opacity="0.1"/>
<path d="M73.6957 35.0844C74.0275 35.7791 73.4828 36.5723 72.7154 36.5123L67.5351 36.1071C66.7676 36.0471 66.3529 35.1788 66.7886 34.5442L69.7297 30.2605C70.1654 29.6258 71.1248 29.7009 71.4565 30.3955L73.6957 35.0844Z" fill="white" fill-opacity="0.1"/>
<path d="M55.149 39.7761C54.4543 40.1078 53.6611 39.5632 53.7211 38.7957L54.1263 33.6154C54.1863 32.8479 55.0546 32.4332 55.6892 32.869L59.9729 35.81C60.6076 36.2458 60.5325 37.2051 59.8379 37.5368L55.149 39.7761Z" fill="white" fill-opacity="0.1"/>
<path d="M91.6763 49.5298C91.3446 48.8352 91.8892 48.0419 92.6567 48.1019L97.837 48.5071C98.6045 48.5672 99.0191 49.4355 98.5834 50.0701L95.6424 54.3538C95.2066 54.9884 94.2473 54.9134 93.9156 54.2187L91.6763 49.5298Z" fill="white" fill-opacity="0.1"/>
<path d="M96.3687 68.0759C95.6741 68.4076 94.8808 67.863 94.9408 67.0955L95.346 61.9152C95.406 61.1477 96.2744 60.7331 96.909 61.1688L101.193 64.1098C101.827 64.5456 101.752 65.5049 101.058 65.8366L96.3687 68.0759Z" fill="white" fill-opacity="0.1"/>
</svg>
