<svg width="50" height="50" viewBox="0 0 50 50" fill="none" xmlns="http://www.w3.org/2000/svg">
<rect width="50" height="50" rx="12" fill="white"/>
<path d="M28.2782 12.5H21.1374C20.8988 12.5 20.7075 12.6984 20.7024 12.945C20.5581 19.8765 17.0496 26.4552 11.0109 31.1151C10.8191 31.2629 10.7755 31.5409 10.9156 31.7411L15.0936 37.7122C15.2357 37.9154 15.5126 37.9612 15.7076 37.812C19.4835 34.9174 22.5206 31.4255 24.7078 27.5551C26.895 31.4255 29.9322 34.9174 33.7081 37.812C33.9029 37.9612 34.1799 37.9154 34.3221 37.7122L38.5001 31.7411C38.6401 31.5409 38.5965 31.2629 38.4049 31.1151C32.3659 26.4552 28.8575 19.8765 28.7134 12.945C28.7081 12.6984 28.5168 12.5 28.2782 12.5Z" fill="#FF875B"/>
</svg>
