<svg width="25" height="25" viewBox="0 0 25 25" fill="none" xmlns="http://www.w3.org/2000/svg">
<path d="M19.77 5.83C18.44 5.21 17 4.76 15.5 4.5C15.4736 4.50038 15.4485 4.51116 15.43 4.53C15.25 4.86 15.04 5.29 14.9 5.62C13.309 5.38015 11.691 5.38015 10.1 5.62C9.96 5.28 9.75 4.86 9.56 4.53C9.55 4.51 9.52 4.5 9.49 4.5C7.99 4.76 6.56 5.21 5.22 5.83C5.21 5.83 5.2 5.84 5.19 5.85C2.47 9.92 1.72 13.88 2.09 17.8C2.09 17.82 2.1 17.84 2.12 17.85C3.92 19.17 5.65 19.97 7.36 20.5C7.39 20.51 7.41999 20.5 7.43 20.48C7.83 19.93 8.19 19.35 8.5 18.74C8.52 18.7 8.5 18.66 8.46 18.65C7.89 18.43 7.35 18.17 6.82 17.87C6.78 17.85 6.77999 17.79 6.81 17.76C6.92 17.68 7.02999 17.59 7.14 17.51C7.16 17.49 7.19 17.49 7.21 17.5C10.65 19.07 14.36 19.07 17.76 17.5C17.78 17.49 17.81 17.49 17.83 17.51C17.94 17.6 18.05 17.68 18.16 17.77C18.2 17.8 18.2 17.86 18.15 17.88C17.63 18.19 17.08 18.44 16.51 18.66C16.47 18.67 16.46 18.72 16.47 18.75C16.79 19.36 17.15 19.94 17.54 20.49C17.57 20.5 17.6 20.51 17.63 20.5C19.35 19.97 21.08 19.17 22.88 17.85C22.9 17.84 22.91 17.82 22.91 17.8C23.35 13.27 22.18 9.34 19.81 5.85C19.8 5.84 19.79 5.83 19.77 5.83ZM9.02 15.41C7.99 15.41 7.13 14.46 7.13 13.29C7.13 12.12 7.97 11.17 9.02 11.17C10.08 11.17 10.92 12.13 10.91 13.29C10.91 14.46 10.07 15.41 9.02 15.41ZM15.99 15.41C14.96 15.41 14.1 14.46 14.1 13.29C14.1 12.12 14.94 11.17 15.99 11.17C17.05 11.17 17.89 12.13 17.88 13.29C17.88 14.46 17.05 15.41 15.99 15.41Z" fill="white"/>
</svg>
