<svg width="21" height="21" viewBox="0 0 21 21" fill="none" xmlns="http://www.w3.org/2000/svg">
<rect x="0.615967" y="1.27637" width="19.1915" height="18.7234" rx="9.3617" fill="#ECEBEB"/>
<path d="M10.3161 2.30469V8.43963C10.3161 8.46568 10.29 8.49172 10.264 8.49172C10.0817 8.57134 9.92542 8.65021 9.74312 8.72908C9.50874 8.834 9.24831 8.93966 9.01392 9.07136L8.15451 9.46572L7.45135 9.78196L6.59194 10.1771C6.35755 10.2827 6.12317 10.3876 5.86274 10.5193C5.68044 10.5982 5.4721 10.7039 5.2898 10.7827C5.26376 10.7827 5.26376 10.8088 5.23771 10.7827H5.21167C5.2898 10.651 5.36793 10.5454 5.44606 10.4144C5.86274 9.70308 6.30547 8.99249 6.72215 8.28115C7.16488 7.51846 7.63365 6.75429 8.07638 5.99086C8.49307 5.28027 8.90975 4.56967 9.32644 3.88512C9.63895 3.35756 9.95147 2.85828 10.2379 2.33073C10.29 2.33073 10.29 2.30469 10.3161 2.30469C10.3161 2.30469 10.29 2.30469 10.3161 2.30469Z" fill="#8C8C8C"/>
<path d="M15.3684 10.7829C14.9777 11.0463 14.5611 11.2829 14.1704 11.5195C12.8943 12.2837 11.6443 13.0211 10.3682 13.7845C10.3421 13.7845 10.3421 13.8106 10.3161 13.8106C10.29 13.8106 10.29 13.7845 10.29 13.7845V8.49186C10.29 8.46582 10.3161 8.46582 10.3421 8.46582C10.4463 8.51791 10.5505 8.57148 10.6807 8.62357C10.9932 8.78205 11.3318 8.91376 11.6443 9.0715C11.9307 9.2032 12.1912 9.33491 12.4776 9.43982C12.7641 9.57152 13.0245 9.70323 13.311 9.83493C13.5454 9.94059 13.8058 10.0455 14.0402 10.1772C14.2746 10.2829 14.535 10.3878 14.7694 10.5195C14.9517 10.5984 15.134 10.704 15.3423 10.7829C15.3423 10.7568 15.3423 10.7829 15.3684 10.7829Z" fill="#141414"/>
<path d="M10.3161 18.971C10.2901 18.971 10.3161 18.971 10.3161 18.971C10.2901 18.971 10.2901 18.971 10.2641 18.9442C9.7432 18.2076 9.24839 17.4963 8.72753 16.7589L7.16496 14.5475C6.67015 13.8369 6.14929 13.1263 5.65448 12.3881L5.26384 11.8353C5.26384 11.8092 5.23779 11.8092 5.23779 11.7832C5.26384 11.7832 5.26384 11.8092 5.28988 11.8092C5.99304 12.2304 6.72223 12.6515 7.42539 13.0727C8.23272 13.5735 9.06609 14.0474 9.87342 14.5475C10.0036 14.6263 10.1599 14.7052 10.2901 14.7841C10.3161 14.7841 10.3161 14.8109 10.3161 14.8369V18.971Z" fill="#8C8C8C"/>
<path d="M5.21167 10.5068C5.21167 10.4808 5.21167 10.4808 5.21167 10.5068C5.4721 10.3751 5.73253 10.2702 5.99295 10.1385L7.00863 9.66455C7.26905 9.53285 7.52948 9.42793 7.78991 9.29623C8.15451 9.1117 8.54515 8.95395 8.90975 8.76942C9.17018 8.66376 9.43061 8.53206 9.69104 8.42714C9.87334 8.34827 10.0556 8.2694 10.2379 8.16374C10.264 8.16374 10.264 8.1377 10.29 8.1377V13.5085C10.264 13.5353 10.264 13.5085 10.2379 13.5085C10.1598 13.4564 10.0817 13.4296 10.0296 13.3768L5.26376 10.5336C5.23771 10.5068 5.21167 10.5068 5.21167 10.5068ZM15.2902 11.4816C15.2902 11.5076 15.2902 11.5076 15.2642 11.5337C13.7537 13.693 12.2432 15.8255 10.7328 17.9849C10.5765 18.2215 10.4202 18.4321 10.264 18.6694V14.4825C10.6025 14.2719 10.9411 14.0613 11.2796 13.8775L15.2642 11.5076C15.2642 11.4816 15.2902 11.4816 15.2902 11.4816Z" fill="#3C3C3B"/>
<path d="M10.316 8.46549V2.33203L15.3163 10.7044C15.3423 10.7305 15.3684 10.7565 15.3684 10.7833C15.2642 10.7312 15.16 10.6776 15.0298 10.6256C14.8996 10.5727 14.7694 10.4939 14.6392 10.441C14.561 10.415 14.4829 10.3622 14.3787 10.3354C14.2485 10.2833 14.0923 10.2037 13.962 10.1516C13.8839 10.1248 13.8058 10.0727 13.7277 10.0459L13.1808 9.8093C13.0766 9.75647 12.9985 9.73043 12.8943 9.6776C12.7641 9.62477 12.6339 9.5459 12.5036 9.49307C12.4255 9.46702 12.3474 9.41419 12.2693 9.38815L11.7224 9.15079C11.6182 9.0987 11.5401 9.07192 11.4359 9.01909C11.3057 8.967 11.1755 8.88738 11.0452 8.83455C10.9671 8.78247 10.8629 8.75568 10.7848 8.7036L10.316 8.46623V8.46549Z" fill="#343434"/>
</svg>
