<svg width="25" height="25" viewBox="0 0 25 25" fill="none" xmlns="http://www.w3.org/2000/svg">
<path d="M15.5 4H9.5C6.46243 4 4 6.46243 4 9.5V15.5C4 18.5376 6.46243 21 9.5 21H15.5C18.5376 21 21 18.5376 21 15.5V9.5C21 6.46243 18.5376 4 15.5 4Z" stroke="white" stroke-width="1.5" stroke-linecap="round" stroke-linejoin="round"/>
<path d="M12.5 16.106C14.4916 16.106 16.106 14.4916 16.106 12.5C16.106 10.5085 14.4916 8.89404 12.5 8.89404C10.5085 8.89404 8.89401 10.5085 8.89401 12.5C8.89401 14.4916 10.5085 16.106 12.5 16.106Z" stroke="white" stroke-width="1.5" stroke-linecap="round" stroke-linejoin="round"/>
<path d="M17.394 8.63617C17.9629 8.63617 18.424 8.17502 18.424 7.60617C18.424 7.03732 17.9629 6.57617 17.394 6.57617C16.8252 6.57617 16.364 7.03732 16.364 7.60617C16.364 8.17502 16.8252 8.63617 17.394 8.63617Z" fill="white"/>
</svg>
