<svg width="25" height="25" viewBox="0 0 25 25" fill="none" xmlns="http://www.w3.org/2000/svg">
<g clip-path="url(#clip0_13854_10684)">
<path d="M12.905 0.156568C6.28103 0.108568 0.881028 5.50857 0.929028 12.1326C0.977028 18.5886 6.25703 23.8446 12.713 23.9166C19.361 23.9646 24.761 18.5646 24.689 11.9406C24.641 5.48457 19.361 0.204568 12.905 0.156568Z" fill="#2081E2"/>
<path d="M9.35225 6.25C10.0962 7.186 10.5282 8.362 10.5282 9.658C10.5282 10.762 10.1922 11.794 9.64025 12.658H5.65625L9.35225 6.25Z" fill="white"/>
<path d="M21.5209 14.0744C21.5209 14.1224 21.4969 14.1704 21.4489 14.1944C21.1849 14.3144 20.2969 14.7224 19.9129 15.2504C18.9529 16.5704 18.2329 18.6824 16.6009 18.6824H9.76094C7.33694 18.6824 5.32094 16.7624 5.34494 14.2184C5.34494 14.1464 5.39294 14.0984 5.46494 14.0984H8.68094C8.80094 14.0984 8.87294 14.1944 8.87294 14.2904V14.9144C8.87294 15.2504 9.13694 15.5144 9.47294 15.5144H11.9209V14.0984H10.2409C11.2009 12.8744 11.7769 11.3384 11.7769 9.65841C11.7769 7.78641 11.0569 6.08241 9.88094 4.81041C10.6009 4.88241 11.2729 5.02641 11.8969 5.21841V4.81041C11.8969 4.40241 12.2329 4.06641 12.6409 4.06641C13.0489 4.06641 13.3849 4.40241 13.3849 4.81041V5.77041C15.6649 6.82641 17.1769 8.60241 17.1769 10.6184C17.1769 11.7944 16.6729 12.8984 15.7849 13.8104C15.6169 13.9784 15.3769 14.0744 15.1369 14.0744H13.4089V15.4904H15.5689C16.0249 15.4904 16.8649 14.6024 17.2729 14.0744C17.2729 14.0744 17.2969 14.0504 17.3449 14.0264C17.3929 14.0024 21.3289 13.1144 21.3289 13.1144C21.4009 13.0904 21.4969 13.1624 21.4969 13.2344L21.5209 14.0744Z" fill="white"/>
</g>
<defs>
<clipPath id="clip0_13854_10684">
<rect width="24" height="24" fill="white" transform="translate(0.808594 0.0351562)"/>
</clipPath>
</defs>
</svg>
