<?xml version="1.0" encoding="UTF-8"?>
<!DOCTYPE svg PUBLIC "-//W3C//DTD SVG 1.1//EN" "http://www.w3.org/Graphics/SVG/1.1/DTD/svg11.dtd">
<!-- Creator: CorelDRAW -->
<svg xmlns="http://www.w3.org/2000/svg" xml:space="preserve" width="1.14919in" height="1.138in" version="1.1" style="shape-rendering:geometricPrecision; text-rendering:geometricPrecision; image-rendering:optimizeQuality; fill-rule:evenodd; clip-rule:evenodd"
viewBox="0 0 262.88 260.32"
 xmlns:xlink="http://www.w3.org/1999/xlink"
 xmlns:xodm="http://www.corel.com/coreldraw/odm/2003">
 <defs>
  <style type="text/css">
   <![CDATA[
    .fil0 {fill:url(#id0)}
   ]]>
  </style>
  <linearGradient id="id0" gradientUnits="userSpaceOnUse" x1="61.8" y1="225.54" x2="168.77" y2="86.59">
   <stop offset="0" style="stop-opacity:1; stop-color:#EB6BFE"/>
   <stop offset="1" style="stop-opacity:1; stop-color:#771FEF"/>
  </linearGradient>
 </defs>
 <g id="Layer_x0020_1">
  <metadata id="CorelCorpID_0Corel-Layer"/>
  <path class="fil0" d="M262.88 0l-177.75 0 -85.14 87.49 0 152.82 71.08 -72c-10.17,-5.77 -6.97,-27.48 12.27,-22.46 2.67,0.7 39.22,27.91 36.88,36.88 -4.01,15.36 -14.53,16.51 -24.54,8.03l-67.77 69.56 149.83 0 85.14 -85.14 0 -175.19zm-132.52 50.45l-56.41 63.66c-3.83,4.32 -10.49,4.72 -14.8,0.9l-3 -2.66c-2.67,-2.37 -2.92,-6.48 -0.55,-9.15l61.72 -69.65c2.37,-2.67 6.48,-2.92 9.15,-0.55l3 2.66c4.32,3.83 4.72,10.49 0.89,14.8zm24.08 132.86l56.41 -63.66c3.83,-4.32 10.49,-4.72 14.8,-0.9l3 2.66c2.67,2.37 2.92,6.48 0.55,9.15l-61.72 69.65c-2.37,2.67 -6.48,2.92 -9.15,0.55l-3 -2.66c-4.32,-3.83 -4.72,-10.49 -0.89,-14.8zm-20.66 -126.09l-52.19 59.07 69.93 60.31 52.24 -60.65 -69.98 -58.74z"/>
 </g>
</svg>
