<svg width="25" height="25" viewBox="0 0 25 25" fill="none" xmlns="http://www.w3.org/2000/svg">
<rect x="0.808594" y="0.152344" width="24" height="24" rx="9.08108" fill="#8C62F2"/>
<path d="M12.2467 5.34016C12.4964 4.90773 13.1205 4.90773 13.3702 5.34016L14.4937 7.28611C14.7434 7.71854 14.4313 8.25908 13.932 8.25908H11.685C11.1856 8.25908 10.8736 7.71854 11.1232 7.28611L12.2467 5.34016Z" fill="white"/>
<path d="M5.99787 12.7132C5.56544 12.4636 5.56544 11.8394 5.99788 11.5898L7.94382 10.4663C8.37625 10.2166 8.91679 10.5287 8.91679 11.028V13.275C8.91679 13.7743 8.37625 14.0864 7.94382 13.8367L5.99787 12.7132Z" fill="white"/>
<path d="M19.6193 11.5914C20.0517 11.8411 20.0517 12.4653 19.6193 12.7149L17.6734 13.8384C17.2409 14.0881 16.7004 13.776 16.7004 13.2767V11.0297C16.7004 10.5304 17.2409 10.2183 17.6734 10.4679L19.6193 11.5914Z" fill="white"/>
<path d="M13.3705 18.9645C13.1208 19.397 12.4966 19.397 12.247 18.9645L11.1235 17.0186C10.8738 16.5861 11.1859 16.0456 11.6852 16.0456H13.9322C14.4315 16.0456 14.7436 16.5861 14.494 17.0186L13.3705 18.9645Z" fill="white"/>
</svg>
