<svg width="25" height="25" viewBox="0 0 25 25" fill="none" xmlns="http://www.w3.org/2000/svg">
<path d="M13.581 11.212L8.79499 4.502C8.73948 4.42404 8.66614 4.36049 8.58107 4.31666C8.496 4.27282 8.40168 4.24996 8.30599 4.25H5.77999C5.66989 4.25014 5.56195 4.28057 5.46799 4.33797C5.37403 4.39536 5.29768 4.4775 5.24729 4.57539C5.1969 4.67328 5.17441 4.78315 5.1823 4.89296C5.19018 5.00278 5.22813 5.10831 5.29199 5.198L11.419 13.788M13.581 11.212L19.708 19.802C19.7718 19.8917 19.8098 19.9972 19.8177 20.107C19.8256 20.2169 19.8031 20.3267 19.7527 20.4246C19.7023 20.5225 19.6259 20.6046 19.532 20.662C19.438 20.7194 19.3301 20.7499 19.22 20.75H16.694C16.5983 20.75 16.504 20.7272 16.4189 20.6833C16.3338 20.6395 16.2605 20.576 16.205 20.498L11.419 13.788M13.581 11.212L19.423 4.25M11.419 13.788L5.57699 20.75" stroke="white" stroke-width="1.5" stroke-linecap="round" stroke-linejoin="round"/>
</svg>
