<svg width="25" height="25" viewBox="0 0 25 25" fill="none" xmlns="http://www.w3.org/2000/svg">
<path fill-rule="evenodd" clip-rule="evenodd" d="M12.5 4.5C13.355 4.5 14.232 4.522 15.082 4.558L16.086 4.606L17.047 4.663L17.947 4.724L18.769 4.788C19.6612 4.85589 20.5008 5.23643 21.14 5.8626C21.7791 6.48877 22.1768 7.3204 22.263 8.211L22.303 8.636L22.378 9.546C22.448 10.489 22.5 11.517 22.5 12.5C22.5 13.483 22.448 14.511 22.378 15.454L22.303 16.364L22.263 16.789C22.1768 17.6798 21.7789 18.5115 21.1396 19.1377C20.5002 19.7639 19.6604 20.1443 18.768 20.212L17.948 20.275L17.048 20.337L16.086 20.394L15.082 20.442C14.2218 20.4793 13.361 20.4986 12.5 20.5C11.639 20.4986 10.7782 20.4793 9.918 20.442L8.914 20.394L7.953 20.337L7.053 20.275L6.231 20.212C5.33881 20.1441 4.4992 19.7636 3.86004 19.1374C3.22089 18.5112 2.82319 17.6796 2.737 16.789L2.697 16.364L2.622 15.454C2.54583 14.4711 2.50514 13.4858 2.5 12.5C2.5 11.517 2.552 10.489 2.622 9.546L2.697 8.636L2.737 8.211C2.82316 7.32055 3.22071 6.48905 3.85966 5.86291C4.49861 5.23676 5.33799 4.85612 6.23 4.788L7.051 4.724L7.951 4.663L8.913 4.606L9.917 4.558C10.7775 4.52073 11.6387 4.50139 12.5 4.5ZM10.5 10.075V14.925C10.5 15.387 11 15.675 11.4 15.445L15.6 13.02C15.6914 12.9674 15.7673 12.8916 15.8201 12.8003C15.8729 12.709 15.9007 12.6055 15.9007 12.5C15.9007 12.3945 15.8729 12.291 15.8201 12.1997C15.7673 12.1084 15.6914 12.0326 15.6 11.98L11.4 9.556C11.3088 9.50332 11.2053 9.4756 11.0999 9.47562C10.9945 9.47563 10.8911 9.50339 10.7998 9.5561C10.7086 9.6088 10.6329 9.6846 10.5802 9.77587C10.5276 9.86713 10.4999 9.97065 10.5 10.076V10.075Z" fill="white"/>
</svg>
