<svg width="95" height="95" viewBox="0 0 95 95" fill="none" xmlns="http://www.w3.org/2000/svg">
<path d="M93.579 58.9868C87.2326 84.4468 61.4375 99.9236 36.0139 93.5768C10.5531 87.2304 -4.92372 61.4364 1.42309 36.0131C7.76954 10.5531 33.5272 -4.92372 58.9879 1.4231C84.4115 7.73243 99.9258 33.5264 93.579 58.9868Z" fill="url(#paint0_linear_13067_4087)"/>
<path d="M70.1162 41.5811C71.0439 35.2725 66.2568 31.8584 59.6514 29.5947L61.8037 21.0225L56.6084 19.7236L54.5303 28.0732C53.1572 27.7393 51.7471 27.4053 50.3369 27.1084L52.415 18.7217L47.2197 17.4229L45.1045 25.958C43.9541 25.6982 42.8408 25.4385 41.7646 25.1787V25.1416L34.5654 23.3604L33.1924 28.9268C33.1924 28.9268 37.0518 29.8174 36.9775 29.8545C39.0928 30.374 39.4639 31.7842 39.3896 32.8975L36.9404 42.6572C37.0889 42.6943 37.2744 42.7314 37.4971 42.8428C37.3115 42.8057 37.126 42.7686 36.9404 42.6943L33.5264 56.3506C33.2666 56.9814 32.5986 57.9463 31.1514 57.5752C31.1885 57.6494 27.3662 56.6475 27.3662 56.6475L24.7686 62.6221L31.5596 64.3291C32.8213 64.6631 34.0459 64.96 35.2705 65.2939L33.1182 73.9404L38.3135 75.2393L40.4658 66.667C41.876 67.0381 43.2861 67.4092 44.6221 67.7432L42.5068 76.2783L47.7021 77.5772L49.8545 68.9307C58.7607 70.6006 65.4404 69.9326 68.2236 61.8799C70.4873 55.4229 68.1123 51.6748 63.4365 49.2256C66.8877 48.4463 69.4482 46.1826 70.1162 41.5811ZM58.2041 58.2803C56.6084 64.7373 45.6982 61.249 42.1728 60.3584L45.0303 48.8916C48.5557 49.7822 59.9111 51.5264 58.2041 58.2803ZM59.8369 41.4697C58.3525 47.3701 49.2978 44.3643 46.3662 43.6221L48.9639 33.2314C51.8955 33.9736 61.3584 35.3467 59.8369 41.4697Z" fill="white"/>
<defs>
<linearGradient id="paint0_linear_13067_4087" x1="4747.43" y1="-2.28" x2="4747.43" y2="9499.04" gradientUnits="userSpaceOnUse">
<stop stop-color="#F9AA4B"/>
<stop offset="1" stop-color="#F7931A"/>
</linearGradient>
</defs>
</svg>
