<svg width="46" height="46" viewBox="0 0 46 46" fill="none" xmlns="http://www.w3.org/2000/svg">
<path d="M0.5 23C0.5 20.0453 1.08198 17.1194 2.21271 14.3896C3.34344 11.6598 5.00078 9.17942 7.0901 7.0901C9.17941 5.00078 11.6598 3.34344 14.3896 2.21271C17.1194 1.08198 20.0453 0.5 23 0.5C25.9547 0.5 28.8806 1.08198 31.6104 2.21271C34.3402 3.34344 36.8206 5.00078 38.9099 7.0901C40.9992 9.17942 42.6566 11.6598 43.7873 14.3896C44.918 17.1194 45.5 20.0453 45.5 23C45.5 28.9674 43.1295 34.6903 38.9099 38.9099C34.6903 43.1295 28.9674 45.5 23 45.5C17.0326 45.5 11.3097 43.1295 7.0901 38.9099C2.87053 34.6903 0.5 28.9674 0.5 23Z" fill="#0E5BFF"/>
<path fill-rule="evenodd" clip-rule="evenodd" d="M23 38.9375C27.2269 38.9375 31.2807 37.2584 34.2695 34.2695C37.2584 31.2807 38.9375 27.2269 38.9375 23C38.9375 18.7731 37.2584 14.7193 34.2695 11.7305C31.2807 8.74162 27.2269 7.0625 23 7.0625C18.7731 7.0625 14.7193 8.74162 11.7305 11.7305C8.74162 14.7193 7.0625 18.7731 7.0625 23C7.0625 27.2269 8.74162 31.2807 11.7305 34.2695C14.7193 37.2584 18.7731 38.9375 23 38.9375ZM21.125 18.3125C19.5725 18.3125 18.3125 19.5725 18.3125 21.125V24.875C18.3125 26.4275 19.5725 27.6875 21.125 27.6875H24.875C26.4275 27.6875 27.6875 26.4275 27.6875 24.875V21.125C27.6875 19.5725 26.4275 18.3125 24.875 18.3125H21.125Z" fill="white"/>
</svg>
