<svg width="101" height="100" viewBox="0 0 101 100" fill="none" xmlns="http://www.w3.org/2000/svg">
<rect x="0.5" width="100" height="100" rx="50" fill="#29292A"/>
<path d="M47.6442 19.875C48.1747 20.199 48.5546 20.7205 48.7006 21.3247C48.8465 21.929 48.7464 22.5664 48.4224 23.0968C48.1835 23.4862 48.0829 23.9448 48.1368 24.3984C48.1907 24.852 48.3959 25.2742 48.7192 25.5968L49.0255 25.9031C50.863 27.7406 51.5411 30.4437 50.788 32.9343C50.7069 33.2379 50.5656 33.5222 50.3725 33.7701C50.1794 34.018 49.9384 34.2245 49.6638 34.3774C49.3893 34.5303 49.0868 34.6264 48.7743 34.6601C48.4619 34.6937 48.1459 34.6641 47.8451 34.5732C47.5443 34.4822 47.2648 34.3316 47.0234 34.1305C46.7819 33.9294 46.5834 33.6817 46.4396 33.4023C46.2958 33.1229 46.2097 32.8174 46.1863 32.504C46.1629 32.1906 46.2028 31.8757 46.3036 31.5781C46.4272 31.1674 46.4372 30.7309 46.3327 30.3149C46.2282 29.8989 46.0129 29.5191 45.7099 29.2156L45.4036 28.9093C44.3372 27.843 43.6605 26.4488 43.4825 24.9512C43.3045 23.4536 43.6356 21.9397 44.4224 20.6531C44.7464 20.1227 45.2679 19.7427 45.8721 19.5968C46.4764 19.4508 47.1138 19.5509 47.6442 19.875ZM75.9192 34.5218C75.488 34.6875 75.1067 35.0718 74.338 35.8375C73.5692 36.6062 73.188 36.9875 73.0192 37.4218C72.8245 37.9277 72.8245 38.4878 73.0192 38.9937C73.188 39.425 73.5692 39.8093 74.338 40.5781C75.1036 41.3437 75.488 41.7281 75.9192 41.8937C76.426 42.0893 76.9874 42.0893 77.4942 41.8937C77.9255 41.7281 78.3067 41.3437 79.0755 40.5781C79.8411 39.8093 80.2255 39.425 80.3911 38.9937C80.5859 38.4878 80.5859 37.9277 80.3911 37.4218C80.2255 36.9875 79.8442 36.6062 79.0786 35.8375C78.3099 35.0718 77.9255 34.6875 77.4942 34.5218C76.9874 34.3263 76.426 34.3263 75.9192 34.5218ZM80.4005 51.75C79.8471 51.5066 79.2354 51.4272 78.6382 51.5214C78.041 51.6156 77.4834 51.8793 77.0317 52.2812C75.7991 53.3761 74.2528 54.0548 72.6125 54.2209C70.9722 54.3869 69.3213 54.0319 67.8942 53.2062L67.2317 52.8218C66.6978 52.5088 66.3094 51.9973 66.1512 51.399C65.993 50.8006 66.0779 50.164 66.3873 49.628C66.6968 49.092 67.2057 48.7002 67.803 48.538C68.4003 48.3759 69.0375 48.4566 69.5755 48.7625L70.238 49.1468C71.4192 49.8281 72.9036 49.6781 73.9224 48.7718C75.0435 47.7764 76.4265 47.1231 77.9075 46.8894C79.3884 46.6556 80.9054 46.8513 82.2786 47.4531L83.188 47.8531C83.4793 47.9698 83.7443 48.1438 83.9671 48.3648C84.1899 48.5859 84.366 48.8494 84.4851 49.1398C84.6041 49.4302 84.6636 49.7415 84.6601 50.0554C84.6565 50.3692 84.59 50.6791 84.4644 50.9667C84.3388 51.2543 84.1567 51.5138 83.9289 51.7297C83.7011 51.9456 83.4323 52.1136 83.1384 52.2237C82.8445 52.3337 82.5315 52.3836 82.2179 52.3704C81.9043 52.3572 81.5966 52.2812 81.313 52.1468L80.4005 51.75Z" fill="#8C62F2"/>
<path d="M55.8782 26.2376C56.5064 25.6126 56.822 25.297 57.1845 25.1814C57.4915 25.0841 57.8212 25.0841 58.1282 25.1814C58.4907 25.297 58.8064 25.6095 59.4345 26.2376C60.0595 26.8689 60.3751 27.1814 60.4907 27.5439C60.588 27.8509 60.588 28.1805 60.4907 28.4876C60.3751 28.8532 60.0626 29.1657 59.4345 29.7939C58.8064 30.422 58.4907 30.7376 58.1282 30.8532C57.8212 30.9505 57.4915 30.9505 57.1845 30.8532C56.822 30.7376 56.5064 30.422 55.8782 29.7939C55.2501 29.1689 54.9345 28.8532 54.822 28.4876C54.7247 28.1805 54.7247 27.8509 54.822 27.5439C54.9345 27.1814 55.2501 26.8689 55.8782 26.2376ZM73.0564 60.3532C73.2121 60.1977 73.3969 60.0744 73.6004 59.9903C73.8038 59.9062 74.0217 59.863 74.2418 59.8631C74.4619 59.8633 74.6799 59.9067 74.8832 59.9911C75.0864 60.0755 75.2711 60.1991 75.4267 60.3548C75.5822 60.5105 75.7055 60.6954 75.7896 60.8988C75.8737 61.1022 75.9169 61.3202 75.9168 61.5403C75.9167 61.7604 75.8732 61.9783 75.7888 62.1816C75.7044 62.3849 75.5808 62.5696 75.4251 62.7251C75.1106 63.0392 74.6841 63.2155 74.2396 63.2152C73.7951 63.2149 73.3689 63.0381 73.0548 62.7235C72.7407 62.409 72.5644 61.9826 72.5647 61.5381C72.565 61.0935 72.7418 60.6673 73.0564 60.3532Z" fill="#FF7BE9"/>
<path d="M35.1471 24.8129C35.303 24.6574 35.4881 24.5341 35.6917 24.4501C35.8953 24.366 36.1134 24.323 36.3337 24.3232C36.5539 24.3235 36.772 24.3672 36.9753 24.4518C37.1787 24.5363 37.3634 24.6601 37.519 24.816C37.6745 24.972 37.7978 25.157 37.8818 25.3606C37.9658 25.5642 38.0089 25.7824 38.0086 26.0026C38.0083 26.2229 37.9647 26.4409 37.8801 26.6443C37.7956 26.8477 37.6718 27.0324 37.5158 27.1879C37.2009 27.502 36.7741 27.6782 36.3293 27.6776C35.8844 27.677 35.4581 27.4997 35.144 27.1848C34.8299 26.8698 34.6537 26.443 34.6543 25.9982C34.6549 25.5534 34.8321 25.127 35.1471 24.8129ZM68.7783 27.2567C69.3873 27.3788 69.9229 27.7377 70.2675 28.2545C70.612 28.7714 70.7373 29.4038 70.6158 30.0129L70.1658 32.2629C69.861 33.7838 69.1601 35.1973 68.1341 36.3605C67.108 37.5238 65.793 38.3956 64.3221 38.8879C63.6331 39.115 63.0168 39.5212 62.5363 40.0648C62.0558 40.6084 61.7285 41.2699 61.5877 41.9817L61.1377 44.2317C60.9998 44.8251 60.6361 45.3415 60.1239 45.6714C59.6116 46.0013 58.9911 46.1188 58.3937 45.9989C57.7963 45.879 57.2691 45.5312 56.9238 45.0292C56.5785 44.5272 56.4423 43.9105 56.544 43.3098L56.994 41.0598C57.6127 37.966 59.844 35.4348 62.8377 34.4379C64.2377 33.9692 65.2815 32.791 65.569 31.3442L66.019 29.0942C66.0794 28.7923 66.1988 28.5053 66.3702 28.2496C66.5416 27.9939 66.7617 27.7744 67.018 27.6038C67.2742 27.4331 67.5616 27.3147 67.8636 27.2551C68.1657 27.1955 68.4765 27.1961 68.7783 27.2567Z" fill="#19B360"/>
<path d="M68.1874 42.9442C68.3426 42.7869 68.5273 42.6618 68.731 42.5762C68.9347 42.4906 69.1533 42.4461 69.3742 42.4453C69.5952 42.4446 69.8141 42.4875 70.0184 42.5717C70.2226 42.6559 70.4082 42.7797 70.5645 42.9359C70.7207 43.0921 70.8445 43.2777 70.9287 43.482C71.0129 43.6863 71.0558 43.9052 71.0551 44.1262C71.0543 44.3471 71.0098 44.5657 70.9242 44.7694C70.8386 44.9731 70.7135 45.1578 70.5562 45.313C70.2413 45.6235 69.8164 45.7968 69.3742 45.7953C68.932 45.7938 68.5084 45.6174 68.1957 45.3047C67.883 44.992 67.7066 44.5684 67.7051 44.1262C67.7035 43.6839 67.8769 43.2591 68.1874 42.9442Z" fill="#FF8A25"/>
<path d="M26.0376 61.7559L31.3188 45.9152C33.7126 38.734 34.9094 35.1434 37.7407 34.4777C40.5719 33.8059 43.2501 36.484 48.6001 41.8371L59.1626 52.3965C64.5126 57.7496 67.1907 60.4246 66.5219 63.2559C65.8532 66.0871 62.2626 67.2871 55.0813 69.6777L39.2407 74.959C30.6001 77.8402 26.2782 79.2809 23.9969 76.9996C21.7157 74.7184 23.1563 70.3965 26.0376 61.7559Z" fill="#FFC107"/>
<path d="M41.0004 35.9497L41.1567 35.1841C39.9317 34.4654 38.8473 34.2154 37.741 34.4747C37.2977 34.5801 36.8773 34.7655 36.5004 35.0216L38.6754 35.4716C37.1817 35.1591 36.6723 35.056 36.5004 35.0216L36.391 35.0966L36.3754 35.1779C36.2208 35.9362 36.077 36.6967 35.9442 37.4591C35.5813 39.4725 35.2573 41.4926 34.9723 43.5185C34.3004 48.3091 33.6754 54.431 33.9973 59.3216C34.191 62.2841 34.8098 65.956 35.3567 68.8216C35.6581 70.392 35.9831 71.9578 36.3317 73.5185L36.3973 73.8091L36.416 73.8872L36.4223 73.9154L36.8504 75.7529L39.241 74.9591L41.316 74.2685L40.9848 72.831L40.966 72.7654L40.9035 72.4904L40.6785 71.4591C40.4252 70.2901 40.1856 69.1181 39.9598 67.9435C39.4192 65.1091 38.8504 61.6716 38.6754 59.0154C38.3879 54.6279 38.9504 48.906 39.6129 44.1716C39.9945 41.4707 40.4467 38.7801 40.9692 36.1029L40.9942 35.9872L41.0004 35.956V35.9497ZM54.2504 69.956L49.8004 71.4404L49.5129 70.5716L49.5098 70.5622L49.5035 70.5435L49.4817 70.4747C49.3544 70.0917 49.2346 69.7062 49.1223 69.3185C48.891 68.5466 48.5848 67.4747 48.2785 66.2466C47.6785 63.8404 47.0223 60.6466 47.0223 57.9841C47.0223 55.3216 47.6785 52.1279 48.2785 49.7247C48.6343 48.3018 49.0356 46.8907 49.4817 45.4935L49.5035 45.4279L49.5098 45.406L51.7379 46.1372L49.5129 45.3997L50.1754 43.4091L53.8817 47.1185L53.8692 47.1622L53.6129 47.9966C53.3973 48.7154 53.1129 49.7154 52.8254 50.8591C52.241 53.2029 51.7098 55.9279 51.7098 57.9841C51.7098 60.0404 52.241 62.7685 52.8254 65.1091C53.1557 66.4255 53.5267 67.7313 53.9379 69.0247L53.9567 69.0779L53.9598 69.0904L54.2504 69.956Z" fill="#FFEE58"/>
</svg>
