<svg width="95" height="95" viewBox="0 0 95 95" fill="none" xmlns="http://www.w3.org/2000/svg">
<path d="M47.5 95C73.7335 95 95 73.7335 95 47.5C95 21.2665 73.7335 0 47.5 0C21.2665 0 0 21.2665 0 47.5C0 73.7335 21.2665 95 47.5 95Z" fill="#0FACF3"/>
<path d="M28.1171 26.7663H44.2434C50.6381 26.7663 53.8146 26.5645 58.5824 27.0009C63.3532 27.5056 68.124 29.4531 71.2115 33.1848C74.8482 37.5192 75.911 43.3676 75.6706 48.8093C75.4331 54.2213 73.5776 59.8976 69.3234 63.5937C65.5501 66.9899 60.2687 68.2339 55.2574 68.2665C45.514 68.2992 35.8032 68.2665 26.0598 68.2665C24.997 68.1982 23.7946 68.2992 22.9723 67.5599C21.5324 66.1171 22.3904 63.0237 24.6882 63.1573C30.1092 62.991 35.5628 63.1573 40.9867 63.0563C40.8828 58.4874 40.951 53.9185 40.951 49.3823C36.7651 49.3467 32.6118 49.3823 28.4289 49.3823C27.4996 49.3467 26.4695 49.3467 25.751 48.741C24.8931 47.9692 24.8931 46.6599 25.2701 45.6535C25.751 44.5432 27.0543 44.3413 28.1528 44.3413C32.407 44.3057 36.6968 44.3413 40.9481 44.3413C41.0193 40.1732 40.8828 36.0051 41.0193 31.8726C36.2485 31.8399 31.4807 31.8726 26.7099 31.8726C25.6471 31.8399 24.4478 31.8399 23.6224 31.1007C22.7674 29.9904 22.9396 28.411 23.6581 27.3007C25.0296 26.6298 26.609 26.7663 28.1171 26.7663ZM46.9212 44.3413C48.8746 44.374 50.831 44.2048 52.7874 44.4749C55.1209 44.8104 55.1209 48.9103 52.7518 49.2457C50.831 49.5485 48.842 49.3467 46.8856 49.3823C46.9212 53.3456 46.8856 57.2792 46.8856 61.2424C46.9212 61.9163 46.9538 62.9228 47.8118 62.991C50.1453 63.1929 52.1759 63.1246 54.8121 63.1246C58.722 63.2938 62.8396 62.0856 65.5828 59.2267C68.3971 56.2371 69.4273 52.072 69.4956 48.1028C69.5995 43.7031 68.7742 38.864 65.5471 35.5687C62.6348 32.6118 58.244 31.6054 54.159 31.8399C51.8315 31.8399 49.8365 31.7717 47.6753 31.9735C46.9895 32.1754 46.9539 33.0156 46.9212 33.6212V44.3413Z" fill="white"/>
</svg>
