<svg width="95" height="95" viewBox="0 0 95 95" fill="none" xmlns="http://www.w3.org/2000/svg">
<path d="M47.5 95C73.7335 95 95 73.7335 95 47.5C95 21.2665 73.7335 0 47.5 0C21.2665 0 0 21.2665 0 47.5C0 73.7335 21.2665 95 47.5 95Z" fill="#627EEA"/>
<path d="M48.9722 11.875V38.2078L71.2289 48.1531L48.9722 11.875Z" fill="white" fill-opacity="0.602"/>
<path d="M48.9784 11.875L26.7188 48.1531L48.9784 38.2078V11.875Z" fill="white"/>
<path d="M48.9722 65.2159V83.1086L71.2437 52.2959L48.9722 65.2159Z" fill="white" fill-opacity="0.602"/>
<path d="M48.9784 83.1086V65.2129L26.7188 52.2959L48.9784 83.1086Z" fill="white"/>
<path d="M48.9722 61.0743L71.2289 48.1513L48.9722 38.2119V61.0743Z" fill="white" fill-opacity="0.2"/>
<path d="M26.7188 48.1513L48.9784 61.0743V38.2119L26.7188 48.1513Z" fill="white" fill-opacity="0.602"/>
</svg>
