<svg width="30" height="30" viewBox="0 0 30 30" fill="none" xmlns="http://www.w3.org/2000/svg">
<path d="M14.134 1.5C14.5189 0.833334 15.4811 0.833333 15.866 1.5L18.4641 6C18.849 6.66667 18.3679 7.5 17.5981 7.5H12.4019C11.6321 7.5 11.151 6.66667 11.5359 6L14.134 1.5Z" fill="#8C62F2"/>
<path d="M1.5 15.866C0.833334 15.4811 0.833333 14.5189 1.5 14.134L6 11.5359C6.66667 11.151 7.5 11.6321 7.5 12.4019L7.5 17.5981C7.5 18.3679 6.66667 18.849 6 18.4641L1.5 15.866Z" fill="#8C62F2"/>
<path d="M28.5 14.134C29.1667 14.5189 29.1667 15.4811 28.5 15.866L24 18.4641C23.3333 18.849 22.5 18.3679 22.5 17.5981V12.4019C22.5 11.6321 23.3333 11.151 24 11.5359L28.5 14.134Z" fill="#8C62F2"/>
<path d="M15.866 28.5C15.4811 29.1667 14.5189 29.1667 14.134 28.5L11.5359 24C11.151 23.3333 11.6321 22.5 12.4019 22.5H17.5981C18.3679 22.5 18.849 23.3333 18.4641 24L15.866 28.5Z" fill="#8C62F2"/>
</svg>
