<svg width="147" height="37" viewBox="0 0 147 37" fill="none" xmlns="http://www.w3.org/2000/svg">
<rect width="37" height="37" rx="14" fill="#8C62F2"/>
<path d="M17.634 8C18.0189 7.33333 18.9811 7.33333 19.366 8L21.0981 11C21.483 11.6667 21.0019 12.5 20.2321 12.5H16.7679C15.9981 12.5 15.517 11.6667 15.9019 11L17.634 8Z" fill="white"/>
<path d="M8 19.366C7.33333 18.9811 7.33333 18.0189 8 17.634L11 15.9019C11.6667 15.517 12.5 15.9981 12.5 16.7679V20.2321C12.5 21.0019 11.6667 21.483 11 21.0981L8 19.366Z" fill="white"/>
<path d="M29 17.634C29.6667 18.0189 29.6667 18.9811 29 19.366L26 21.0981C25.3333 21.483 24.5 21.0019 24.5 20.2321V16.7679C24.5 15.9981 25.3333 15.517 26 15.9019L29 17.634Z" fill="white"/>
<path d="M19.366 29C18.9811 29.6667 18.0189 29.6667 17.634 29L15.9019 26C15.517 25.3333 15.9981 24.5 16.7679 24.5H20.2321C21.0019 24.5 21.483 25.3333 21.0981 26L19.366 29Z" fill="white"/>
<path d="M53.2938 26.24C52.4138 26.24 51.5658 26.16 50.7498 26C49.9498 25.856 49.2058 25.64 48.5178 25.352C47.8458 25.064 47.2458 24.72 46.7178 24.32L47.6538 21.896C48.1818 22.264 48.7338 22.584 49.3098 22.856C49.9018 23.112 50.5258 23.312 51.1818 23.456C51.8538 23.584 52.5578 23.648 53.2938 23.648C54.5578 23.648 55.4778 23.44 56.0538 23.024C56.6298 22.592 56.9178 22.04 56.9178 21.368C56.9178 21 56.8298 20.688 56.6538 20.432C56.4778 20.16 56.1898 19.928 55.7898 19.736C55.3898 19.544 54.8618 19.384 54.2058 19.256L51.5658 18.704C50.0458 18.384 48.9098 17.848 48.1578 17.096C47.4218 16.328 47.0538 15.32 47.0538 14.072C47.0538 13.016 47.3338 12.096 47.8938 11.312C48.4538 10.528 49.2298 9.92 50.2218 9.488C51.2138 9.056 52.3578 8.84 53.6538 8.84C54.4218 8.84 55.1578 8.92 55.8618 9.08C56.5818 9.224 57.2378 9.448 57.8298 9.752C58.4378 10.04 58.9658 10.392 59.4138 10.808L58.4778 13.112C57.8058 12.552 57.0698 12.136 56.2698 11.864C55.4698 11.576 54.5898 11.432 53.6298 11.432C52.8938 11.432 52.2618 11.536 51.7338 11.744C51.2058 11.952 50.7978 12.248 50.5098 12.632C50.2378 13 50.1018 13.44 50.1018 13.952C50.1018 14.528 50.2938 14.992 50.6778 15.344C51.0618 15.68 51.7178 15.944 52.6458 16.136L55.2618 16.688C56.8458 17.024 58.0218 17.552 58.7898 18.272C59.5738 18.992 59.9658 19.952 59.9658 21.152C59.9658 22.16 59.6938 23.048 59.1498 23.816C58.6058 24.584 57.8298 25.184 56.8218 25.616C55.8298 26.032 54.6538 26.24 53.2938 26.24ZM68.0533 26.24C66.4853 26.24 65.3173 25.848 64.5493 25.064C63.7813 24.28 63.3973 23.136 63.3973 21.632V16.52H61.1413V14.264H63.3973V10.76H66.3973V14.264H69.9493V16.52H66.3973V21.464C66.3973 22.232 66.5653 22.808 66.9013 23.192C67.2373 23.576 67.7813 23.768 68.5333 23.768C68.7573 23.768 68.9893 23.744 69.2293 23.696C69.4693 23.632 69.7173 23.568 69.9733 23.504L70.4293 25.712C70.1413 25.872 69.7733 26 69.3253 26.096C68.8933 26.192 68.4693 26.24 68.0533 26.24ZM76.2322 26.24C75.3842 26.24 74.6242 26.08 73.9522 25.76C73.2962 25.424 72.7762 24.976 72.3922 24.416C72.0242 23.856 71.8402 23.224 71.8402 22.52C71.8402 21.656 72.0642 20.976 72.5122 20.48C72.9602 19.968 73.6882 19.6 74.6962 19.376C75.7042 19.152 77.0562 19.04 78.7522 19.04H79.9522V20.768H78.7762C78.0242 20.768 77.3922 20.8 76.8802 20.864C76.3682 20.912 75.9522 21 75.6322 21.128C75.3282 21.24 75.1042 21.4 74.9602 21.608C74.8322 21.816 74.7682 22.072 74.7682 22.376C74.7682 22.904 74.9522 23.336 75.3202 23.672C75.6882 24.008 76.2002 24.176 76.8562 24.176C77.3842 24.176 77.8482 24.056 78.2482 23.816C78.6642 23.56 78.9922 23.216 79.2322 22.784C79.4722 22.352 79.5922 21.856 79.5922 21.296V18.536C79.5922 17.736 79.4162 17.16 79.0642 16.808C78.7122 16.456 78.1202 16.28 77.2882 16.28C76.6322 16.28 75.9602 16.384 75.2722 16.592C74.5842 16.784 73.8882 17.088 73.1842 17.504L72.3202 15.464C72.7362 15.176 73.2242 14.928 73.7842 14.72C74.3602 14.496 74.9602 14.328 75.5842 14.216C76.2242 14.088 76.8242 14.024 77.3842 14.024C78.5362 14.024 79.4802 14.2 80.2162 14.552C80.9682 14.904 81.5282 15.44 81.8962 16.16C82.2642 16.864 82.4482 17.776 82.4482 18.896V26H79.6402V23.504H79.8322C79.7202 24.064 79.4962 24.552 79.1602 24.968C78.8402 25.368 78.4322 25.68 77.9362 25.904C77.4402 26.128 76.8722 26.24 76.2322 26.24ZM85.9732 26V14.264H88.9012V17.096H88.6612C88.8852 16.136 89.3252 15.408 89.9812 14.912C90.6372 14.4 91.5092 14.104 92.5972 14.024L93.5092 13.952L93.7012 16.496L91.9732 16.664C90.9972 16.76 90.2612 17.064 89.7652 17.576C89.2692 18.072 89.0212 18.776 89.0212 19.688V26H85.9732ZM95.8516 26V9.08H98.8516V19.256H98.8996L103.628 14.264H107.252L101.348 20.504V19.256L107.588 26H103.916L98.8996 20.768H98.8516V26H95.8516ZM109.487 26V9.08H116.879C118.655 9.08 120.031 9.472 121.007 10.256C121.983 11.024 122.471 12.096 122.471 13.472C122.471 14.496 122.175 15.36 121.583 16.064C120.991 16.768 120.183 17.24 119.159 17.48V17.12C119.943 17.232 120.615 17.472 121.175 17.84C121.735 18.208 122.159 18.68 122.447 19.256C122.751 19.832 122.903 20.504 122.903 21.272C122.903 22.264 122.671 23.12 122.207 23.84C121.759 24.544 121.103 25.08 120.239 25.448C119.375 25.816 118.343 26 117.143 26H109.487ZM112.439 23.672H116.759C117.191 23.672 117.575 23.64 117.911 23.576C118.263 23.512 118.559 23.416 118.799 23.288C119.055 23.144 119.263 22.968 119.423 22.76C119.599 22.552 119.727 22.312 119.807 22.04C119.887 21.768 119.927 21.464 119.927 21.128C119.927 20.776 119.887 20.464 119.807 20.192C119.727 19.92 119.599 19.688 119.423 19.496C119.263 19.288 119.055 19.12 118.799 18.992C118.559 18.848 118.263 18.744 117.911 18.68C117.575 18.616 117.191 18.584 116.759 18.584H112.439V23.672ZM112.439 16.256H116.351C117.407 16.256 118.191 16.056 118.703 15.656C119.231 15.24 119.495 14.632 119.495 13.832C119.495 13.032 119.231 12.432 118.703 12.032C118.191 11.616 117.407 11.408 116.351 11.408H112.439V16.256ZM126.01 11.744V8.816H129.37V11.744H126.01ZM126.202 26V14.264H129.202V26H126.202ZM137.311 26.24C136.287 26.24 135.383 25.992 134.599 25.496C133.831 25 133.231 24.296 132.799 23.384C132.367 22.456 132.151 21.368 132.151 20.12C132.151 18.856 132.367 17.776 132.799 16.88C133.231 15.968 133.831 15.264 134.599 14.768C135.383 14.272 136.287 14.024 137.311 14.024C138.287 14.024 139.135 14.264 139.855 14.744C140.591 15.224 141.087 15.856 141.343 16.64H141.079V9.08H144.079V26H141.151V23.504H141.367C141.127 24.336 140.639 25 139.903 25.496C139.167 25.992 138.303 26.24 137.311 26.24ZM138.151 23.96C139.047 23.96 139.767 23.64 140.311 23C140.855 22.344 141.127 21.384 141.127 20.12C141.127 18.84 140.855 17.888 140.311 17.264C139.767 16.624 139.047 16.304 138.151 16.304C137.255 16.304 136.535 16.624 135.991 17.264C135.447 17.888 135.175 18.84 135.175 20.12C135.175 21.384 135.447 22.344 135.991 23C136.535 23.64 137.255 23.96 138.151 23.96Z" fill="white"/>
</svg>
