<svg width="46" height="44" viewBox="0 0 46 44" fill="none" xmlns="http://www.w3.org/2000/svg">
<path d="M42.5525 41.795L32.86 38.9675L25.55 43.2475H20.45L13.135 38.9675L3.4475 41.7925L0.5 32.05L3.4475 21.2325L0.5 12.085L3.4475 0.75L18.5875 9.61H27.4125L42.5525 0.75L45.5 12.085L42.5525 21.23L45.5 32.05L42.5525 41.795Z" fill="#FF5C16"/>
<path d="M3.4502 0.75L18.5877 9.6175L17.9877 15.7025L3.4502 0.75ZM13.1377 32.05L19.8002 37.025L13.1377 38.9675V32.05ZM19.2677 23.835L17.9877 15.7075L9.7927 21.2325H9.7877V21.235L9.8127 26.9225L13.1377 23.835H19.2677ZM42.5502 0.75L27.4102 9.6175L28.0102 15.7025L42.5502 0.75ZM32.8627 32.05L26.2002 37.025L32.8627 38.9675V32.05ZM36.2102 21.235L28.0127 15.71L26.7327 23.835H32.8602L36.1852 26.925L36.2102 21.235Z" fill="#FF5C16"/>
<path d="M13.135 38.967L3.4475 41.792L0.5 32.0545H13.135V38.967ZM19.265 23.832L21.115 35.582L18.55 29.047L9.8075 26.922L13.1325 23.832H19.265ZM32.865 38.967L42.5525 41.792L45.5 32.0545H32.8625L32.865 38.967ZM26.735 23.832L24.885 35.582L27.45 29.047L36.1925 26.922L32.865 23.832H26.735Z" fill="#E34807"/>
<path d="M0.5 32.0504L3.4475 21.2304H9.785L9.81 26.9204L18.55 29.0454L21.115 35.5779L19.7975 37.0178L13.135 32.0453H0.5V32.0504ZM45.5 32.0504L42.5525 21.2304H36.215L36.19 26.9204L27.45 29.0454L24.885 35.5779L26.2025 37.0178L32.865 32.0453H45.5V32.0504ZM27.4125 9.61035H18.5875L17.9875 15.6979L21.115 35.5729H24.885L28.015 15.6979L27.4125 9.61035Z" fill="#FF8D5D"/>
<path d="M3.4475 0.75L0.5 12.085L3.4475 21.23H9.785L17.985 15.7025L3.4475 0.75ZM17.4325 26.1925H14.5625L12.9975 27.6925L18.5525 29.0425L17.4325 26.1925ZM42.5525 0.75L45.5 12.085L42.5525 21.23H36.215L28.015 15.7025L42.5525 0.75ZM28.57 26.1925H31.445L33.01 27.6925L27.45 29.045L28.57 26.1925ZM25.5475 39.37L26.2025 37.02L24.885 35.5825H21.1125L19.795 37.02L20.45 39.37" fill="#661800"/>
<path d="M25.5502 39.3701V43.2501H20.4502V39.3701H25.5502Z" fill="#C0C4CD"/>
<path d="M13.1377 38.9626L20.4552 43.2476V39.3676L19.8002 37.0176L13.1377 38.9626ZM32.8627 38.9626L25.5502 43.2501V39.3701L26.2052 37.0201L32.8627 38.9626Z" fill="#E7EBF6"/>
</svg>
