<svg width="60" height="60" viewBox="0 0 60 60" fill="none" xmlns="http://www.w3.org/2000/svg">
<path d="M38.0857 39.3381V47.2718C35.1959 48.6589 31.5267 49.464 27.3981 49.464C17.3246 49.464 10 44.9221 10 38.3437V37.0787C10 35.6709 10.5499 34.3208 11.5287 33.3253C12.5076 32.3299 13.8351 31.7707 15.2194 31.7707H34.1085C34.1079 33.2675 34.4706 34.7413 35.1644 36.0614C35.8582 37.3815 36.8616 38.507 38.0857 39.3381ZM27.3981 7C28.7689 7 30.1264 7.27459 31.3929 7.80809C32.6594 8.3416 33.8101 9.12357 34.7795 10.1094C35.7488 11.0951 36.5177 12.2654 37.0423 13.5534C37.5669 14.8414 37.8369 16.2219 37.8369 17.616C37.8369 19.0101 37.5669 20.3906 37.0423 21.6786C36.5177 22.9666 35.7488 24.1369 34.7795 25.1226C33.8101 26.1084 32.6594 26.8904 31.3929 27.4239C30.1264 27.9574 28.7689 28.232 27.3981 28.232C24.6295 28.232 21.9744 27.1135 20.0167 25.1226C18.059 23.1318 16.9592 20.4315 16.9592 17.616C16.9592 14.8005 18.059 12.1002 20.0167 10.1094C21.9744 8.11847 24.6295 7 27.3981 7ZM45.045 38.5543C46.6432 38.0648 48.0154 37.0077 48.9115 35.5756C49.8076 34.1434 50.168 32.4316 49.927 30.7519C49.6861 29.0722 48.8597 27.5364 47.5986 26.4243C46.3375 25.3123 44.7255 24.698 43.0564 24.6933C41.4757 24.6926 39.9419 25.2392 38.7073 26.243C37.4728 27.2469 36.611 28.6483 36.2639 30.2166C35.9168 31.7848 36.105 33.4265 36.7976 34.8715C37.4902 36.3165 38.6458 37.4787 40.0743 38.1668V49.9983C40.0743 50.2655 40.1787 50.5238 40.3649 50.7131L42.3222 52.7036C42.7223 53.1106 43.3748 53.0964 43.7575 52.6736L47.3833 48.6607C47.5569 48.469 47.6508 48.2164 47.6453 47.9558C47.6398 47.6952 47.5353 47.4469 47.3537 47.2629L45.045 44.915L47.3241 42.5972C47.417 42.5035 47.4907 42.392 47.5409 42.2691C47.5912 42.1463 47.6171 42.0146 47.6171 41.8815C47.6171 41.7485 47.5912 41.6167 47.5409 41.4939C47.4907 41.3711 47.417 41.2596 47.3241 41.1658L45.045 38.848V38.5543ZM44.7962 30.0013C44.7962 30.4706 44.6129 30.9206 44.2866 31.2524C43.9603 31.5842 43.5178 31.7707 43.0564 31.7707C42.5949 31.7707 42.1524 31.5842 41.8261 31.2524C41.4999 30.9206 41.3166 30.4706 41.3166 30.0013C41.3166 29.5321 41.4999 29.082 41.8261 28.7502C42.1524 28.4184 42.5949 28.232 43.0564 28.232C43.5178 28.232 43.9603 28.4184 44.2866 28.7502C44.6129 29.082 44.7962 29.5321 44.7962 30.0013Z" fill="#8C62F2"/>
</svg>
