<svg width="20" height="20" viewBox="0 0 20 20" fill="none" xmlns="http://www.w3.org/2000/svg">
<path opacity="0.5" d="M15.9672 4.558L14.1372 2.728C12.5912 1.183 11.8192 0.410004 10.8162 0.123004C9.81325 -0.164996 8.74825 0.0810036 6.61925 0.573004L5.39125 0.856004C3.59925 1.269 2.70325 1.476 2.08925 2.089C1.47525 2.702 1.27025 3.6 0.856245 5.391L0.572245 6.619C0.0812454 8.749 -0.164755 9.813 0.122245 10.816C0.410245 11.819 1.18325 12.591 2.72825 14.136L4.55825 15.966C7.24825 18.657 8.59225 20 10.2622 20C11.9332 20 13.2772 18.656 15.9662 15.967C18.6562 13.277 20.0002 11.933 20.0002 10.262C20.0002 8.592 18.6562 7.247 15.9672 4.558Z" fill="#352A56"/>
<path d="M9.14628 12.328C8.47328 11.656 8.47928 10.69 8.88128 9.925C8.78151 9.78089 8.73537 9.6064 8.75085 9.43181C8.76634 9.25722 8.84249 9.09357 8.96607 8.96928C9.08965 8.84499 9.25286 8.7679 9.42735 8.75141C9.60185 8.73492 9.77661 8.78006 9.92128 8.879C10.2613 8.699 10.6343 8.603 11.0063 8.607C11.2052 8.60886 11.3952 8.68965 11.5346 8.83162C11.6739 8.97358 11.7511 9.16509 11.7493 9.364C11.7474 9.56291 11.6666 9.75294 11.5247 9.89228C11.3827 10.0316 11.1912 10.1089 10.9923 10.107C10.7607 10.1156 10.5419 10.2151 10.3833 10.384C9.99628 10.771 10.0983 11.159 10.2063 11.268C10.3163 11.377 10.7033 11.478 11.0903 11.091C11.8743 10.307 13.2283 10.047 14.0963 10.914C14.7693 11.587 14.7633 12.553 14.3603 13.318C14.4594 13.4621 14.5051 13.6364 14.4893 13.8106C14.4735 13.9849 14.3973 14.1481 14.2739 14.2721C14.1505 14.3961 13.9877 14.473 13.8135 14.4896C13.6394 14.5062 13.4649 14.4614 13.3203 14.363C12.8715 14.6092 12.351 14.6913 11.8483 14.595C11.7518 14.5752 11.6601 14.5365 11.5785 14.4813C11.4969 14.426 11.427 14.3552 11.3728 14.273C11.3186 14.1907 11.2811 14.0985 11.2624 14.0018C11.2438 13.905 11.2445 13.8055 11.2643 13.709C11.2841 13.6125 11.3228 13.5208 11.378 13.4392C11.4333 13.3576 11.5041 13.2877 11.5863 13.2335C11.6686 13.1793 11.7608 13.1418 11.8575 13.1232C11.9543 13.1045 12.0538 13.1052 12.1503 13.125C12.3273 13.162 12.6133 13.104 12.8583 12.859C13.2463 12.471 13.1443 12.084 13.0353 11.975C12.9263 11.866 12.5393 11.765 12.1513 12.152C11.3673 12.936 10.0133 13.196 9.14628 12.328ZM8.02028 8.293C8.2113 8.10851 8.36367 7.88782 8.46849 7.64381C8.5733 7.3998 8.62848 7.13736 8.63078 6.8718C8.63309 6.60624 8.58249 6.34288 8.48193 6.09709C8.38136 5.8513 8.23286 5.628 8.04507 5.44021C7.85729 5.25242 7.63398 5.10392 7.38819 5.00336C7.1424 4.90279 6.87904 4.85219 6.61348 4.8545C6.34792 4.85681 6.08548 4.91198 5.84147 5.0168C5.59747 5.12162 5.37678 5.27398 5.19228 5.465C4.82797 5.8422 4.62638 6.34741 4.63093 6.8718C4.63549 7.3962 4.84583 7.89782 5.21665 8.26864C5.58746 8.63945 6.08909 8.84979 6.61348 8.85435C7.13787 8.85891 7.64308 8.65732 8.02028 8.293Z" fill="#8C62F2"/>
</svg>
