<svg width="22" height="20" viewBox="0 0 22 20" fill="none" xmlns="http://www.w3.org/2000/svg">
<path opacity="0.5" d="M3.50245 1.47283C2.53062 2.28016 2.27512 3.64516 1.76295 6.37633L0.887949 11.043C0.168115 14.8837 -0.192385 16.804 0.857615 18.0687C1.90762 19.3333 3.85945 19.3333 7.76778 19.3333H14.2311C18.1394 19.3333 20.0936 19.3333 21.1424 18.0687C22.1924 16.804 21.8319 14.8837 21.1121 11.043L20.2371 6.37633C19.7249 3.64633 19.4694 2.28016 18.4976 1.47283C17.5246 0.666664 16.1363 0.666664 13.3561 0.666664H8.64278C5.86378 0.666664 4.47545 0.666664 3.50245 1.47283Z" fill="#8E9BAE"/>
<path d="M11.0006 6.79167C10.4576 6.79183 9.92796 6.62362 9.48458 6.3102C9.0412 5.99678 8.70592 5.55358 8.52493 5.04167C8.48801 4.93158 8.42956 4.82993 8.35297 4.74266C8.27638 4.65539 8.18319 4.58423 8.07882 4.53334C7.97446 4.48245 7.86101 4.45284 7.74508 4.44623C7.62916 4.43963 7.51308 4.45616 7.40361 4.49487C7.29414 4.53358 7.19346 4.59369 7.10746 4.6717C7.02145 4.74971 6.95183 4.84406 6.90266 4.94924C6.85348 5.05443 6.82574 5.16835 6.82103 5.28437C6.81633 5.40038 6.83476 5.51618 6.87526 5.625C7.1769 6.47823 7.73565 7.21696 8.47456 7.73946C9.21347 8.26195 10.0962 8.54252 11.0012 8.54252C11.9062 8.54252 12.7889 8.26195 13.5278 7.73946C14.2667 7.21696 14.8254 6.47823 15.1271 5.625C15.1676 5.51618 15.186 5.40038 15.1813 5.28437C15.1766 5.16835 15.1489 5.05443 15.0997 4.94924C15.0505 4.84406 14.9809 4.74971 14.8949 4.6717C14.8089 4.59369 14.7082 4.53358 14.5987 4.49487C14.4893 4.45616 14.3732 4.43963 14.2573 4.44623C14.1413 4.45284 14.0279 4.48245 13.9235 4.53334C13.8192 4.58423 13.726 4.65539 13.6494 4.74266C13.5728 4.82993 13.5143 4.93158 13.4774 5.04167C13.2964 5.55377 12.9609 5.9971 12.5173 6.31054C12.0737 6.62397 11.5438 6.79207 11.0006 6.79167Z" fill="#8E9BAE"/>
</svg>
