<svg width="17" height="17" viewBox="0 0 17 17" fill="none" xmlns="http://www.w3.org/2000/svg">
<g clip-path="url(#clip0_13849_4032)">
<path fill-rule="evenodd" clip-rule="evenodd" d="M8.23242 15.3906C7.28265 15.3906 6.34217 15.2036 5.46469 14.8401C4.58722 14.4766 3.78992 13.9439 3.11833 13.2723C2.44673 12.6007 1.914 11.8034 1.55054 10.9259C1.18707 10.0485 1 9.10798 1 8.1582C1 7.20843 1.18707 6.26795 1.55054 5.39048C1.914 4.513 2.44673 3.7157 3.11833 3.04411C3.78992 2.37252 4.58722 1.83978 5.46469 1.47632C6.34217 1.11285 7.28265 0.925781 8.23242 0.925781C9.1822 0.925781 10.1227 1.11285 11.0002 1.47632C11.8776 1.83978 12.6749 2.37252 13.3465 3.04411C14.0181 3.7157 14.5508 4.513 14.9143 5.39048C15.2778 6.26795 15.4648 7.20843 15.4648 8.1582C15.4648 9.10798 15.2778 10.0485 14.9143 10.9259C14.5508 11.8034 14.0181 12.6007 13.3465 13.2723C12.6749 13.9439 11.8776 14.4766 11.0002 14.8401C10.1227 15.2036 9.1822 15.3906 8.23242 15.3906ZM13.803 6.13312C13.5571 5.51435 13.1014 4.99201 12.4883 4.60789C11.8018 4.19116 10.9848 4.04505 10.1964 4.19805C9.78257 4.27841 9.38157 4.4327 9.0296 4.63762C8.68947 4.83686 8.37506 5.07705 8.0934 5.35283C7.96092 5.48446 7.83359 5.62117 7.71169 5.76266L7.39507 6.16607L6.90487 6.81699L6.79478 6.96566C6.20011 7.76685 5.54357 8.65322 4.50451 8.92645C3.66073 9.14904 3.18901 9.04458 2.70846 8.9385C2.57013 8.90603 2.43076 8.87816 2.29059 8.85493C2.51027 9.45548 2.84003 10.0098 3.26294 10.4895C3.69046 10.9716 4.22486 11.4104 4.91194 11.6997C5.58857 11.9946 6.43878 12.1015 7.23435 11.9408C8.03233 11.7881 8.73226 11.4184 9.2972 10.9917C9.8312 10.5807 10.3065 10.0986 10.7099 9.55888C10.8168 9.41825 10.8739 9.3387 10.951 9.22941L11.164 8.91198C11.2387 8.81394 11.3102 8.70867 11.3809 8.6042C11.4506 8.49866 11.5218 8.39741 11.5947 8.30044L11.6389 8.23696C11.9121 7.85203 12.1837 7.46871 12.4963 7.11432C12.6627 6.92548 12.8379 6.74467 13.0444 6.56948C13.1481 6.4851 13.259 6.40072 13.3819 6.32679C13.5122 6.24251 13.6541 6.17755 13.803 6.13393M5.22052 5.9033L5.04212 6.45537C5.0368 6.47208 5.02626 6.48664 5.01205 6.49692C4.99784 6.5072 4.98071 6.51265 4.96318 6.51247C4.94564 6.51229 4.92862 6.50649 4.91463 6.49592C4.90063 6.48535 4.89039 6.47058 4.88542 6.45376L4.71586 5.89928C4.69865 5.84383 4.66834 5.79334 4.6275 5.75207C4.58665 5.71081 4.53648 5.67999 4.48121 5.66221L3.92993 5.48381C3.9132 5.47858 3.89859 5.46811 3.88824 5.45396C3.87789 5.4398 3.87235 5.4227 3.87244 5.40517C3.87253 5.38763 3.87825 5.37059 3.88874 5.35654C3.89923 5.34249 3.91395 5.33218 3.93074 5.32711L4.48522 5.15675C4.54064 5.13981 4.59118 5.10979 4.63258 5.06923C4.67397 5.02868 4.70502 4.97877 4.72309 4.9237L4.90149 4.37163C4.9256 4.29529 5.03408 4.29609 5.05739 4.37243L5.22775 4.92692C5.24477 4.98243 5.27491 5.03302 5.31561 5.07442C5.35632 5.11583 5.40639 5.14682 5.4616 5.16478L6.01368 5.34318C6.09002 5.36729 6.08921 5.47578 6.01207 5.49908L5.45758 5.66945C5.40222 5.68658 5.35179 5.71676 5.31053 5.75746C5.26928 5.79816 5.23841 5.84817 5.22052 5.9033ZM11.9017 12.1047C11.6831 12.1047 11.4735 12.0179 11.3189 11.8633C11.1644 11.7088 11.0776 11.4992 11.0776 11.2806C11.0776 11.062 11.1644 10.8524 11.3189 10.6979C11.4735 10.5433 11.6831 10.4565 11.9017 10.4565C12.1201 10.4565 12.3296 10.5433 12.4841 10.6978C12.6386 10.8522 12.7254 11.0617 12.7254 11.2802C12.7254 11.4987 12.6386 11.7082 12.4841 11.8626C12.3296 12.0171 12.1201 12.1047 11.9017 12.1047Z" fill="white"/>
</g>
<defs>
<clipPath id="clip0_13849_4032">
<rect width="16" height="16" fill="white" transform="translate(0.429688 0.390625)"/>
</clipPath>
</defs>
</svg>
