<svg width="32" height="32" viewBox="0 0 32 32" fill="none" xmlns="http://www.w3.org/2000/svg">
<path opacity="0.5" d="M26.4936 0H4.67534C3.43663 0.00410853 2.24982 0.498007 1.37391 1.37391C0.498007 2.24982 0.00410853 3.43663 0 4.67534V18.4832L6.04677 12.4364C6.93774 11.5884 8.12066 11.1154 9.35068 11.1154C10.5807 11.1154 11.7636 11.5884 12.6546 12.4364L17.1289 16.9356L18.5128 15.5517C19.3915 14.679 20.5798 14.1893 21.8182 14.1893C23.0567 14.1893 24.2449 14.679 25.1237 15.5517L31.1689 21.6001V4.67534C31.1648 3.43663 30.6709 2.24982 29.795 1.37391C28.9191 0.498007 27.7323 0.00410853 26.4936 0Z" fill="#8C62F2"/>
<path d="M12.6546 12.4362C11.7636 11.5882 10.5807 11.1152 9.35068 11.1152C8.12066 11.1152 6.93774 11.5882 6.04677 12.4362L0 18.483V26.4934C0.00410853 27.7321 0.498007 28.9189 1.37391 29.7948C2.24982 30.6707 3.43663 31.1646 4.67534 31.1687H26.4936C27.1223 31.1683 27.7444 31.0412 28.3228 30.7948C28.9012 30.5485 29.4239 30.188 29.8598 29.735L12.6546 12.4362Z" fill="#8C62F2"/>
<path opacity="0.25" d="M31.1689 21.5961L25.1237 15.5509C24.245 14.6782 23.0567 14.1885 21.8183 14.1885C20.5798 14.1885 19.3916 14.6782 18.5128 15.5509L17.1289 16.9348L29.8536 29.7281C30.6983 28.8632 31.1705 27.7021 31.1689 26.4928V21.5961Z" fill="#8C62F2"/>
</svg>
