<svg width="95" height="95" viewBox="0 0 95 95" fill="none" xmlns="http://www.w3.org/2000/svg">
<path d="M47.5 95C73.7335 95 95 73.7335 95 47.5C95 21.2665 73.7335 0 47.5 0C21.2665 0 0 21.2665 0 47.5C0 73.7335 21.2665 95 47.5 95Z" fill="#26A17B"/>
<path fill-rule="evenodd" clip-rule="evenodd" d="M53.2059 51.606V51.6001C52.8794 51.6238 51.1961 51.7248 47.4406 51.7248C44.4422 51.7248 42.3314 51.6357 41.5892 51.6001V51.609C30.0467 51.1013 21.4314 49.0915 21.4314 46.6868C21.4314 44.2821 30.0467 42.2752 41.5892 41.7587V49.608C42.3433 49.6615 44.5045 49.7891 47.4911 49.7891C51.0744 49.7891 52.8705 49.6407 53.2059 49.611V41.7646C64.7247 42.2782 73.3192 44.288 73.3192 46.6868C73.3192 49.0915 64.7247 51.0954 53.2059 51.606ZM53.2059 40.9482V33.9241H69.2787V23.2129H25.5164V33.9241H41.5892V40.9452C28.5267 41.5449 18.7031 44.1337 18.7031 47.233C18.7031 50.3324 28.5267 52.9182 41.5892 53.5209V76.0299H53.2059V53.5149C66.2477 52.9152 76.0475 50.3295 76.0475 47.233C76.0475 44.1366 66.2477 41.5509 53.2059 40.9482Z" fill="white"/>
</svg>
