<svg width="60" height="38" viewBox="0 0 60 38" fill="none" xmlns="http://www.w3.org/2000/svg">
<path d="M12.2826 7.79738C22.0701 -1.78012 37.9326 -1.78012 47.7176 7.79738L48.8951 8.94988C49.0113 9.06247 49.1038 9.19728 49.1669 9.3463C49.2301 9.49533 49.2626 9.65553 49.2626 9.81738C49.2626 9.97923 49.2301 10.1394 49.1669 10.2885C49.1038 10.4375 49.0113 10.5723 48.8951 10.6849L44.8676 14.6274C44.8095 14.6856 44.7405 14.7318 44.6646 14.7633C44.5887 14.7948 44.5073 14.811 44.4251 14.811C44.3428 14.811 44.2614 14.7948 44.1855 14.7633C44.1096 14.7318 44.0406 14.6856 43.9826 14.6274L42.3601 13.0424C35.5351 6.35988 24.4676 6.35988 17.6426 13.0424L15.9076 14.7424C15.7886 14.8577 15.6295 14.9222 15.4638 14.9222C15.2982 14.9222 15.139 14.8577 15.0201 14.7424L10.9926 10.7974C10.8757 10.6854 10.7828 10.5509 10.7192 10.402C10.6557 10.2532 10.623 10.093 10.623 9.93113C10.623 9.76928 10.6557 9.6091 10.7192 9.46024C10.7828 9.31137 10.8757 9.17689 10.9926 9.06488L12.2826 7.79738ZM56.0476 15.9549L59.6326 19.4649C59.7488 19.5775 59.8413 19.7123 59.9044 19.8613C59.9676 20.0103 60.0001 20.1705 60.0001 20.3324C60.0001 20.4942 59.9676 20.6544 59.9044 20.8035C59.8413 20.9525 59.7488 21.0873 59.6326 21.1999L43.4676 37.0274C43.2298 37.2573 42.912 37.3858 42.5813 37.3858C42.2506 37.3858 41.9328 37.2573 41.6951 37.0274L30.2251 25.7949C30.166 25.736 30.086 25.7029 30.0026 25.7029C29.9191 25.7029 29.8391 25.736 29.7801 25.7949L18.3076 37.0274C18.0698 37.2573 17.752 37.3858 17.4213 37.3858C17.0906 37.3858 16.7728 37.2573 16.5351 37.0274L0.36756 21.1999C0.251281 21.0873 0.158823 20.9525 0.0956807 20.8035C0.0325382 20.6544 0 20.4942 0 20.3324C0 20.1705 0.0325382 20.0103 0.0956807 19.8613C0.158823 19.7123 0.251281 19.5775 0.36756 19.4649L3.95256 15.9549C4.19032 15.725 4.50809 15.5965 4.83881 15.5965C5.16953 15.5965 5.4873 15.725 5.72506 15.9549L17.1976 27.1874C17.3226 27.3074 17.5201 27.3074 17.6426 27.1874L29.1151 15.9549C29.3528 15.725 29.6706 15.5965 30.0013 15.5965C30.332 15.5965 30.6498 15.725 30.8876 15.9549L42.3601 27.1874C42.4851 27.3074 42.6801 27.3074 42.8051 27.1874L54.2776 15.9549C54.5143 15.724 54.8319 15.5948 55.1626 15.5948C55.4932 15.5948 55.8108 15.724 56.0476 15.9549Z" fill="#4678FF"/>
</svg>
