<svg width="11" height="18" viewBox="0 0 11 18" fill="none" xmlns="http://www.w3.org/2000/svg">
<path d="M5.10439 0.666992V6.80194C5.10439 6.82798 5.07835 6.85402 5.05231 6.85402C4.87001 6.93364 4.71375 7.01251 4.53145 7.09139C4.29707 7.1963 4.03664 7.30196 3.80225 7.43366L2.94284 7.82803L2.23968 8.14426L1.38027 8.53937C1.14588 8.64503 0.911499 8.74994 0.651071 8.88165C0.468771 8.96052 0.260428 9.06618 0.0781285 9.14505C0.0520857 9.14505 0.0520857 9.17109 0.0260428 9.14505H0C0.0781285 9.01335 0.156257 8.90769 0.234385 8.77673C0.651071 8.06539 1.0938 7.35479 1.51048 6.64345C1.95321 5.88077 2.42198 5.1166 2.86471 4.35317C3.2814 3.64257 3.69808 2.93197 4.11477 2.24742C4.42728 1.71987 4.7398 1.22059 5.02627 0.693035C5.07835 0.693035 5.07835 0.666992 5.10439 0.666992C5.10439 0.666992 5.07835 0.666992 5.10439 0.666992Z" fill="#8C8C8C"/>
<path d="M10.1567 9.14519C9.76608 9.4086 9.34939 9.64522 8.95875 9.88183C7.68265 10.646 6.4326 11.3834 5.1565 12.1468C5.13045 12.1468 5.13045 12.1729 5.10441 12.1729C5.07837 12.1729 5.07837 12.1468 5.07837 12.1468V6.85417C5.07837 6.82812 5.10441 6.82812 5.13045 6.82812C5.23463 6.88021 5.3388 6.93378 5.46901 6.98587C5.78153 7.14436 6.12008 7.27606 6.4326 7.43381C6.71907 7.56551 6.9795 7.69721 7.26597 7.80213C7.55244 7.93383 7.81287 8.06553 8.09934 8.19723C8.33372 8.30289 8.59415 8.40781 8.82854 8.53951C9.06292 8.64517 9.32335 8.75009 9.55774 8.88179C9.74004 8.96066 9.92234 9.06632 10.1307 9.14519C10.1307 9.11915 10.1307 9.14519 10.1567 9.14519Z" fill="#141414"/>
<path d="M5.10448 17.3333C5.07843 17.3333 5.10448 17.3333 5.10448 17.3333C5.07843 17.3333 5.07843 17.3333 5.05239 17.3065C4.53153 16.5699 4.03672 15.8586 3.51586 15.1212L1.95329 12.9098C1.45848 12.1992 0.937622 11.4886 0.442808 10.7504L0.0521659 10.1976C0.0521659 10.1716 0.026123 10.1716 0.026123 10.1455C0.0521659 10.1455 0.0521659 10.1716 0.0782087 10.1716C0.781365 10.5927 1.51056 11.0139 2.21372 11.435C3.02105 11.9358 3.85442 12.4097 4.66175 12.9098C4.79196 12.9886 4.94822 13.0675 5.07843 13.1464C5.10448 13.1464 5.10448 13.1732 5.10448 13.1992V17.3333Z" fill="#8C8C8C"/>
<path d="M0 8.86915C0 8.84311 0 8.84311 0 8.86915C0.260428 8.73745 0.520857 8.63254 0.781285 8.50083L1.79696 8.02685C2.05738 7.89515 2.31781 7.79024 2.57824 7.65853C2.94284 7.474 3.33348 7.31626 3.69808 7.13172C3.95851 7.02607 4.21894 6.89436 4.47937 6.78945C4.66167 6.71057 4.84397 6.6317 5.02627 6.52604C5.05231 6.52604 5.05231 6.5 5.07835 6.5V11.8708C5.05231 11.8976 5.05231 11.8708 5.02627 11.8708C4.94814 11.8187 4.87001 11.7919 4.81792 11.7391L0.0520857 8.89594C0.0260428 8.86915 0 8.86915 0 8.86915ZM10.0786 9.8439C10.0786 9.86994 10.0786 9.86994 10.0525 9.89598C8.54205 12.0553 7.03156 14.1878 5.52108 16.3472C5.36482 16.5838 5.20857 16.7944 5.05231 17.0317V12.8448C5.39087 12.6342 5.72942 12.4236 6.06798 12.2398L10.0525 9.86994C10.0525 9.8439 10.0786 9.8439 10.0786 9.8439Z" fill="#3C3C3B"/>
<path d="M5.10437 6.82779V0.694336L10.1046 9.06673C10.1306 9.09278 10.1567 9.11882 10.1567 9.14561C10.0525 9.09352 9.94834 9.03995 9.81812 8.98786C9.68791 8.93503 9.5577 8.85616 9.42748 8.80333C9.34935 8.77729 9.27122 8.72446 9.16705 8.69767C9.03684 8.64558 8.88058 8.56597 8.75037 8.51388C8.67224 8.4871 8.59411 8.43501 8.51598 8.40822L7.96908 8.1716C7.86491 8.11877 7.78678 8.09273 7.68261 8.0399C7.5524 7.98707 7.42218 7.9082 7.29197 7.85537C7.21384 7.82933 7.13571 7.7765 7.05758 7.75045L6.51068 7.51309C6.40651 7.46101 6.32838 7.43422 6.22421 7.38139C6.094 7.32931 5.96378 7.24969 5.83357 7.19686C5.75544 7.14477 5.65127 7.11799 5.57314 7.0659L5.10437 6.82854V6.82779Z" fill="#343434"/>
</svg>
