<svg width="11" height="17" viewBox="0 0 11 17" fill="none" xmlns="http://www.w3.org/2000/svg">
<path d="M5.40911 0.304932V6.43988C5.40911 6.46592 5.38307 6.49196 5.35703 6.49196C5.17473 6.57158 5.01847 6.65045 4.83617 6.72933C4.60179 6.83424 4.34136 6.9399 4.10697 7.0716L3.24756 7.46597L2.5444 7.7822L1.68499 8.17731C1.4506 8.28297 1.21622 8.38788 0.955789 8.51958C0.773489 8.59846 0.565146 8.70412 0.382847 8.78299C0.356804 8.78299 0.356804 8.80903 0.330761 8.78299H0.304718C0.382847 8.65129 0.460975 8.54563 0.539103 8.41467C0.955789 7.70333 1.39852 6.99273 1.8152 6.28139C2.25793 5.51871 2.7267 4.75454 3.16943 3.99111C3.58611 3.28051 4.0028 2.56991 4.41949 1.88536C4.732 1.35781 5.04451 0.858528 5.33098 0.330974C5.38307 0.330974 5.38307 0.304932 5.40911 0.304932C5.40911 0.304932 5.38307 0.304932 5.40911 0.304932Z" fill="#8C8C8C"/>
<path d="M10.4614 8.78313C10.0708 9.04654 9.65408 9.28315 9.26344 9.51977C7.98734 10.2839 6.73728 11.0213 5.46119 11.7848C5.43514 11.7848 5.43514 11.8108 5.4091 11.8108C5.38306 11.8108 5.38306 11.7848 5.38306 11.7848V6.49211C5.38306 6.46606 5.4091 6.46606 5.43514 6.46606C5.53931 6.51815 5.64349 6.57172 5.7737 6.62381C6.08621 6.7823 6.42477 6.914 6.73728 7.07175C7.02376 7.20345 7.28418 7.33515 7.57065 7.44007C7.85713 7.57177 8.11755 7.70347 8.40403 7.83517C8.63841 7.94083 8.89884 8.04575 9.13322 8.17745C9.36761 8.28311 9.62804 8.38803 9.86242 8.51973C10.0447 8.5986 10.227 8.70426 10.4354 8.78313C10.4354 8.75709 10.4354 8.78313 10.4614 8.78313Z" fill="#141414"/>
<path d="M5.40913 16.9715C5.38309 16.9715 5.40913 16.9715 5.40913 16.9715C5.38309 16.9715 5.38309 16.9715 5.35705 16.9447C4.83619 16.2081 4.34138 15.4967 3.82052 14.7594L2.25795 12.548C1.76314 11.8374 1.24228 11.1268 0.747465 10.3886L0.356823 9.83578C0.356823 9.80973 0.33078 9.80973 0.33078 9.78369C0.356823 9.78369 0.356823 9.80973 0.382866 9.80973C1.08602 10.2309 1.81522 10.652 2.51838 11.0732C3.32571 11.574 4.15908 12.0479 4.9664 12.548C5.09662 12.6268 5.25288 12.7057 5.38309 12.7846C5.40913 12.7846 5.40913 12.8114 5.40913 12.8374V16.9715Z" fill="#8C8C8C"/>
<path d="M0.304718 8.50734C0.304718 8.48129 0.304718 8.48129 0.304718 8.50734C0.565146 8.37563 0.825575 8.27072 1.086 8.13902L2.10167 7.66504C2.3621 7.53334 2.62253 7.42842 2.88296 7.29672C3.24756 7.11219 3.6382 6.95444 4.0028 6.76991C4.26323 6.66425 4.52366 6.53255 4.78408 6.42763C4.96638 6.34876 5.14868 6.26989 5.33098 6.16423C5.35703 6.16423 5.35703 6.13818 5.38307 6.13818V11.509C5.35703 11.5357 5.35703 11.509 5.33098 11.509C5.25286 11.4569 5.17473 11.4301 5.12264 11.3773L0.356804 8.53412C0.330761 8.50734 0.304718 8.50734 0.304718 8.50734ZM10.3833 9.48208C10.3833 9.50813 10.3833 9.50813 10.3573 9.53417C8.84677 11.6935 7.33628 13.826 5.8258 15.9853C5.66954 16.222 5.51328 16.4325 5.35703 16.6699V12.483C5.69558 12.2724 6.03414 12.0618 6.3727 11.878L10.3573 9.50813C10.3573 9.48208 10.3833 9.48208 10.3833 9.48208Z" fill="#3C3C3B"/>
<path d="M5.40912 6.46598V0.33252L10.4093 8.70492C10.4354 8.73096 10.4614 8.757 10.4614 8.78379C10.3573 8.7317 10.2531 8.67813 10.1229 8.62604C9.99266 8.57321 9.86244 8.49434 9.73223 8.44151C9.6541 8.41547 9.57597 8.36264 9.4718 8.33585C9.34159 8.28377 9.18533 8.20415 9.05512 8.15207C8.97699 8.12528 8.89886 8.07319 8.82073 8.04641L8.27383 7.80979C8.16966 7.75696 8.09153 7.73092 7.98736 7.67809C7.85715 7.62526 7.72693 7.54638 7.59672 7.49355C7.51859 7.46751 7.44046 7.41468 7.36233 7.38864L6.81543 7.15128C6.71126 7.09919 6.63313 7.0724 6.52896 7.01957C6.39875 6.96749 6.26853 6.88787 6.13832 6.83504C6.06019 6.78296 5.95602 6.75617 5.87789 6.70408L5.40912 6.46672V6.46598Z" fill="#343434"/>
</svg>
